<?xml version="1.0" encoding="UTF-8"?>
<svg xmlns="http://www.w3.org/2000/svg" xmlns:xlink="http://www.w3.org/1999/xlink" width="235px" height="144px" viewBox="0 0 235 144" version="1.1">
<defs>
<clipPath id="clip1">
  <path d="M 61 32 L 112 32 L 112 91 L 61 91 Z M 61 32 "/>
</clipPath>
<clipPath id="clip2">
  <path d="M 85.355469 33.289062 L 62.980469 46.222656 C 62.144531 46.707031 61.628906 47.597656 61.628906 48.566406 L 61.628906 74.449219 C 61.628906 75.414062 62.144531 76.308594 62.980469 76.792969 L 85.359375 89.734375 C 86.195312 90.21875 87.226562 90.21875 88.0625 89.734375 L 110.433594 76.792969 C 111.265625 76.308594 111.78125 75.414062 111.78125 74.449219 L 111.78125 48.566406 C 111.78125 47.597656 111.265625 46.707031 110.429688 46.222656 L 88.058594 33.289062 C 87.640625 33.046875 87.171875 32.925781 86.703125 32.925781 C 86.238281 32.925781 85.769531 33.046875 85.351562 33.289062 "/>
</clipPath>
<linearGradient id="linear0" gradientUnits="userSpaceOnUse" x1="-0.348" y1="0" x2="1.251" y2="0" gradientTransform="matrix(-20.215228,41.299669,-41.238906,-20.245014,95.814919,42.874656)">
<stop offset="0.3" style="stop-color:rgb(24.313725%,52.54902%,23.921569%);stop-opacity:1;"/>
<stop offset="0.5" style="stop-color:rgb(33.333333%,57.647059%,30.980392%);stop-opacity:1;"/>
<stop offset="0.8" style="stop-color:rgb(35.294118%,67.843137%,27.058824%);stop-opacity:1;"/>
</linearGradient>
<clipPath id="clip3">
  <path d="M 62 33 L 112 33 L 112 91 L 62 91 Z M 62 33 "/>
</clipPath>
<clipPath id="clip4">
  <path d="M 62.183594 76.09375 C 62.398438 76.371094 62.667969 76.613281 62.980469 76.792969 L 82.175781 87.894531 L 85.371094 89.734375 C 85.847656 90.011719 86.394531 90.128906 86.929688 90.089844 C 87.109375 90.074219 87.285156 90.039062 87.460938 89.992188 L 111.058594 46.71875 C 110.878906 46.523438 110.667969 46.359375 110.429688 46.21875 L 95.777344 37.746094 L 88.035156 33.285156 C 87.816406 33.15625 87.578125 33.066406 87.335938 33.003906 Z M 62.183594 76.09375 "/>
</clipPath>
<linearGradient id="linear1" gradientUnits="userSpaceOnUse" x1="-0.456" y1="0" x2="0.582" y2="0" gradientTransform="matrix(56.721568,-41.972256,41.910503,56.805145,83.316121,64.555904)">
<stop offset="0.57" style="stop-color:rgb(24.313725%,52.54902%,23.921569%);stop-opacity:1;"/>
<stop offset="0.72" style="stop-color:rgb(38.039216%,59.607843%,34.117647%);stop-opacity:1;"/>
<stop offset="1" style="stop-color:rgb(46.27451%,67.45098%,39.215686%);stop-opacity:1;"/>
</linearGradient>
<clipPath id="clip5">
  <path d="M 63 32 L 112 32 L 112 91 L 63 91 Z M 63 32 "/>
</clipPath>
<clipPath id="clip6">
  <path d="M 86.4375 32.941406 C 86.0625 32.980469 85.695312 33.097656 85.355469 33.289062 L 63.046875 46.183594 L 87.105469 90.066406 C 87.4375 90.019531 87.769531 89.90625 88.066406 89.734375 L 110.441406 76.792969 C 111.128906 76.390625 111.601562 75.710938 111.746094 74.945312 L 87.222656 32.984375 C 87.039062 32.949219 86.859375 32.929688 86.675781 32.929688 C 86.601562 32.929688 86.523438 32.933594 86.449219 32.941406 "/>
</clipPath>
<linearGradient id="linear2" gradientUnits="userSpaceOnUse" x1="0.043" y1="0" x2="0.984" y2="0" gradientTransform="matrix(51.735486,0,0,51.811716,60.837821,61.501582)">
<stop offset="0.16" style="stop-color:rgb(41.960784%,74.901961%,27.843137%);stop-opacity:1;"/>
<stop offset="0.38" style="stop-color:rgb(47.45098%,70.588235%,38.039216%);stop-opacity:1;"/>
<stop offset="0.47" style="stop-color:rgb(45.882353%,67.45098%,39.215686%);stop-opacity:1;"/>
<stop offset="0.7" style="stop-color:rgb(39.607843%,61.960784%,35.294118%);stop-opacity:1;"/>
<stop offset="0.9" style="stop-color:rgb(24.313725%,52.54902%,23.921569%);stop-opacity:1;"/>
</linearGradient>
</defs>
<g id="surface1">
<path style=" stroke:none;fill-rule:nonzero;fill:rgb(40.784314%,62.352941%,38.823529%);fill-opacity:1;" d="M 116.117188 144.09375 C 115.34375 144.09375 114.570312 143.890625 113.890625 143.5 L 106.808594 139.300781 C 105.75 138.707031 106.269531 138.5 106.617188 138.378906 C 108.027344 137.882812 108.3125 137.769531 109.820312 136.914062 C 109.976562 136.824219 110.183594 136.855469 110.347656 136.953125 L 115.789062 140.1875 C 115.984375 140.292969 116.261719 140.292969 116.445312 140.1875 L 137.660156 127.921875 C 137.859375 127.808594 137.984375 127.582031 137.984375 127.347656 L 137.984375 102.828125 C 137.984375 102.582031 137.859375 102.367188 137.65625 102.242188 L 116.449219 89.988281 C 116.253906 89.871094 115.992188 89.871094 115.796875 89.988281 L 94.59375 102.242188 C 94.386719 102.359375 94.257812 102.589844 94.257812 102.824219 L 94.257812 127.339844 C 94.257812 127.574219 94.382812 127.800781 94.585938 127.910156 L 100.394531 131.273438 C 103.550781 132.851562 105.476562 130.988281 105.476562 129.117188 L 105.476562 104.917969 C 105.476562 104.574219 105.75 104.308594 106.09375 104.308594 L 108.78125 104.308594 C 109.117188 104.308594 109.390625 104.574219 109.390625 104.917969 L 109.390625 129.128906 C 109.390625 133.339844 107.097656 135.761719 103.109375 135.761719 C 101.882812 135.761719 100.917969 135.761719 98.21875 134.429688 L 92.652344 131.21875 C 91.277344 130.421875 90.425781 128.933594 90.425781 127.339844 L 90.425781 102.824219 C 90.425781 101.226562 91.277344 99.738281 92.652344 98.949219 L 113.890625 86.679688 C 115.234375 85.921875 117.019531 85.921875 118.351562 86.679688 L 139.5625 98.957031 C 140.933594 99.75 141.789062 101.234375 141.789062 102.828125 L 141.789062 127.347656 C 141.789062 128.9375 140.933594 130.421875 139.5625 131.21875 L 118.351562 143.488281 C 117.671875 143.882812 116.902344 144.085938 116.117188 144.085938 "/>
<path style=" stroke:none;fill-rule:nonzero;fill:rgb(40.784314%,62.352941%,38.823529%);fill-opacity:1;" d="M 122.671875 127.199219 C 113.386719 127.199219 111.441406 122.933594 111.441406 119.355469 C 111.441406 119.011719 111.714844 118.742188 112.054688 118.742188 L 114.796875 118.742188 C 115.097656 118.742188 115.355469 118.960938 115.402344 119.261719 C 115.816406 122.058594 117.046875 123.46875 122.660156 123.46875 C 127.132812 123.46875 129.035156 122.457031 129.035156 120.082031 C 129.035156 118.714844 128.492188 117.699219 121.546875 117.019531 C 115.738281 116.445312 112.144531 115.164062 112.144531 110.507812 C 112.144531 106.222656 115.757812 103.667969 121.804688 103.667969 C 128.597656 103.667969 131.964844 106.03125 132.390625 111.105469 C 132.40625 111.28125 132.34375 111.449219 132.226562 111.578125 C 132.109375 111.699219 131.945312 111.773438 131.773438 111.773438 L 129.019531 111.773438 C 128.730469 111.773438 128.480469 111.574219 128.421875 111.296875 C 127.761719 108.355469 126.15625 107.414062 121.796875 107.414062 C 116.914062 107.414062 116.347656 109.117188 116.347656 110.390625 C 116.347656 111.941406 117.015625 112.390625 123.601562 113.265625 C 130.125 114.132812 133.21875 115.355469 133.21875 119.945312 C 133.21875 124.570312 129.363281 127.226562 122.640625 127.226562 M 148.480469 101.222656 L 149.195312 101.222656 C 149.777344 101.222656 149.890625 100.8125 149.890625 100.574219 C 149.890625 99.945312 149.460938 99.945312 149.21875 99.945312 L 148.488281 99.945312 Z M 147.617188 99.210938 L 149.195312 99.210938 C 149.734375 99.210938 150.796875 99.210938 150.796875 100.425781 C 150.796875 101.269531 150.257812 101.445312 149.933594 101.554688 C 150.5625 101.59375 150.605469 102.011719 150.691406 102.59375 C 150.734375 102.960938 150.804688 103.59375 150.929688 103.808594 L 149.957031 103.808594 C 149.933594 103.59375 149.785156 102.425781 149.785156 102.363281 C 149.71875 102.101562 149.628906 101.972656 149.304688 101.972656 L 148.503906 101.972656 L 148.503906 103.8125 L 147.617188 103.8125 Z M 145.722656 101.5 C 145.722656 103.402344 147.253906 104.945312 149.140625 104.945312 C 151.042969 104.945312 152.578125 103.371094 152.578125 101.5 C 152.578125 99.589844 151.019531 98.074219 149.136719 98.074219 C 147.277344 98.074219 145.714844 99.570312 145.714844 101.496094 M 153.234375 101.511719 C 153.234375 103.765625 151.394531 105.605469 149.144531 105.605469 C 146.914062 105.605469 145.058594 103.785156 145.058594 101.511719 C 145.058594 99.191406 146.957031 97.414062 149.144531 97.414062 C 151.351562 97.414062 153.230469 99.195312 153.230469 101.511719 "/>
<path style=" stroke:none;fill-rule:evenodd;fill:rgb(20%,20%,20%);fill-opacity:1;" d="M 50.417969 48.160156 C 50.417969 47.179688 49.902344 46.28125 49.058594 45.796875 L 26.566406 32.835938 C 26.1875 32.609375 25.761719 32.492188 25.328125 32.476562 L 25.097656 32.476562 C 24.664062 32.492188 24.238281 32.609375 23.855469 32.835938 L 1.359375 45.796875 C 0.523438 46.285156 0 47.183594 0 48.164062 L 0.0507812 83.074219 C 0.0507812 83.558594 0.300781 84.007812 0.722656 84.25 C 1.136719 84.503906 1.660156 84.503906 2.074219 84.25 L 15.445312 76.578125 C 16.289062 76.074219 16.804688 75.1875 16.804688 74.21875 L 16.804688 57.910156 C 16.804688 56.933594 17.320312 56.035156 18.160156 55.550781 L 23.855469 52.269531 C 24.277344 52.023438 24.742188 51.902344 25.214844 51.902344 C 25.679688 51.902344 26.15625 52.023438 26.566406 52.269531 L 32.257812 55.550781 C 33.097656 56.035156 33.617188 56.933594 33.617188 57.90625 L 33.617188 74.214844 C 33.617188 75.183594 34.136719 76.078125 34.976562 76.578125 L 48.339844 84.242188 C 48.761719 84.492188 49.285156 84.492188 49.703125 84.242188 C 50.113281 84 50.375 83.550781 50.375 83.066406 Z M 156.5625 66.335938 C 156.5625 66.578125 156.433594 66.804688 156.222656 66.925781 L 148.496094 71.382812 C 148.285156 71.503906 148.027344 71.503906 147.820312 71.382812 L 140.089844 66.925781 C 139.878906 66.804688 139.75 66.578125 139.75 66.335938 L 139.75 57.402344 C 139.75 57.160156 139.878906 56.933594 140.085938 56.8125 L 147.808594 52.34375 C 148.019531 52.222656 148.28125 52.222656 148.492188 52.34375 L 156.21875 56.8125 C 156.433594 56.933594 156.558594 57.160156 156.558594 57.402344 Z M 158.648438 0.171875 C 158.226562 -0.0625 157.714844 -0.0546875 157.296875 0.1875 C 156.882812 0.429688 156.628906 0.878906 156.628906 1.363281 L 156.628906 35.933594 C 156.628906 36.273438 156.449219 36.585938 156.152344 36.757812 C 155.863281 36.925781 155.496094 36.925781 155.203125 36.757812 L 149.566406 33.507812 C 148.730469 33.019531 147.695312 33.019531 146.851562 33.507812 L 124.351562 46.511719 C 123.511719 46.996094 122.992188 47.894531 122.992188 48.863281 L 122.992188 74.882812 C 122.992188 75.855469 123.511719 76.75 124.351562 77.238281 L 146.851562 90.253906 C 147.695312 90.734375 148.726562 90.734375 149.570312 90.253906 L 172.074219 77.230469 C 172.910156 76.742188 173.433594 75.847656 173.433594 74.875 L 173.433594 10.03125 C 173.433594 9.046875 172.894531 8.136719 172.035156 7.65625 Z M 233.582031 57.167969 C 234.417969 56.683594 234.929688 55.785156 234.929688 54.816406 L 234.929688 48.511719 C 234.929688 47.539062 234.414062 46.644531 233.578125 46.15625 L 211.21875 33.160156 C 210.375 32.667969 209.339844 32.667969 208.496094 33.160156 L 186 46.164062 C 185.15625 46.652344 184.640625 47.546875 184.640625 48.519531 L 184.640625 74.527344 C 184.640625 75.503906 185.164062 76.410156 186.011719 76.894531 L 208.363281 89.652344 C 209.1875 90.125 210.195312 90.128906 211.027344 89.667969 L 224.550781 82.140625 C 224.976562 81.902344 225.246094 81.449219 225.246094 80.960938 C 225.246094 80.472656 224.984375 80.015625 224.5625 79.777344 L 201.925781 66.765625 C 201.5 66.527344 201.242188 66.074219 201.242188 65.589844 L 201.242188 57.433594 C 201.242188 56.945312 201.496094 56.496094 201.921875 56.253906 L 208.964844 52.183594 C 209.382812 51.941406 209.898438 51.941406 210.316406 52.183594 L 217.363281 56.253906 C 217.785156 56.492188 218.042969 56.945312 218.042969 57.429688 L 218.042969 63.84375 C 218.042969 64.328125 218.304688 64.78125 218.722656 65.023438 C 219.144531 65.261719 219.664062 65.261719 220.082031 65.019531 Z M 233.582031 57.167969 "/>
<path style=" stroke:none;fill-rule:evenodd;fill:rgb(40.784314%,62.352941%,38.823529%);fill-opacity:1;" d="M 209.527344 55.949219 C 209.6875 55.855469 209.886719 55.855469 210.050781 55.949219 L 214.367188 58.445312 C 214.527344 58.539062 214.625 58.710938 214.625 58.898438 L 214.625 63.890625 C 214.625 64.078125 214.527344 64.25 214.367188 64.34375 L 210.050781 66.839844 C 209.886719 66.933594 209.6875 66.933594 209.527344 66.839844 L 205.214844 64.34375 C 205.050781 64.25 204.949219 64.078125 204.949219 63.890625 L 204.949219 58.898438 C 204.949219 58.710938 205.042969 58.539062 205.207031 58.445312 Z M 209.527344 55.949219 "/>
<g clip-path="url(#clip1)" clip-rule="nonzero">
<g clip-path="url(#clip2)" clip-rule="nonzero">
<path style=" stroke:none;fill-rule:nonzero;fill:url(#linear0);" d="M 134.390625 44.023438 L 71.34375 13.078125 L 39.019531 79.121094 L 102.0625 110.070312 Z M 134.390625 44.023438 "/>
</g>
</g>
<g clip-path="url(#clip3)" clip-rule="nonzero">
<g clip-path="url(#clip4)" clip-rule="nonzero">
<path style=" stroke:none;fill-rule:nonzero;fill:url(#linear1);" d="M 34.925781 53.179688 L 79.441406 113.519531 L 138.316406 69.957031 L 93.796875 9.617188 Z M 34.925781 53.179688 "/>
</g>
</g>
<g clip-path="url(#clip5)" clip-rule="nonzero">
<g clip-path="url(#clip6)" clip-rule="nonzero">
<path style=" stroke:none;fill-rule:nonzero;fill:url(#linear2);" d="M 63.046875 32.929688 L 63.046875 90.070312 L 111.738281 90.070312 L 111.738281 32.929688 Z M 63.046875 32.929688 "/>
</g>
</g>
</g>
</svg>
