<?xml version="1.0" encoding="UTF-8"?>
<svg xmlns="http://www.w3.org/2000/svg" xmlns:xlink="http://www.w3.org/1999/xlink" width="144px" height="144px" viewBox="0 0 144 144" version="1.1">
<g id="surface1">
<path style=" stroke:none;fill-rule:nonzero;fill:rgb(100%,42.352941%,21.568627%);fill-opacity:1;" d="M 143.410156 81.140625 C 148.449219 41.695312 120.589844 5.628906 81.214844 0.589844 C 41.835938 -4.449219 5.628906 23.410156 0.589844 62.785156 C -4.449219 102.164062 23.410156 138.300781 62.785156 143.410156 C 102.234375 148.449219 138.300781 120.589844 143.410156 81.140625 Z M 143.410156 81.140625 "/>
<path style=" stroke:none;fill-rule:nonzero;fill:rgb(100%,100%,100%);fill-opacity:1;" d="M 97.988281 46.230469 L 67.609375 76.605469 L 59.042969 68.039062 C 88.917969 38.167969 91.867188 40.757812 97.988281 46.230469 Z M 97.988281 46.230469 "/>
<path style=" stroke:none;fill-rule:nonzero;fill:rgb(100%,42.352941%,21.568627%);fill-opacity:1;" d="M 67.609375 77.328125 C 67.394531 77.328125 67.25 77.253906 67.105469 77.109375 L 58.464844 68.542969 C 58.179688 68.257812 58.179688 67.824219 58.464844 67.535156 C 88.84375 37.160156 92.011719 40.039062 98.417969 45.796875 C 98.5625 45.941406 98.636719 46.085938 98.636719 46.300781 C 98.636719 46.515625 98.5625 46.660156 98.417969 46.804688 L 68.039062 77.109375 C 67.96875 77.253906 67.753906 77.328125 67.609375 77.328125 Z M 60.050781 68.039062 L 67.609375 75.597656 L 96.90625 46.300781 C 91.582031 41.550781 87.980469 40.109375 60.050781 68.039062 Z M 60.050781 68.039062 "/>
<path style=" stroke:none;fill-rule:nonzero;fill:rgb(100%,100%,100%);fill-opacity:1;" d="M 76.320312 85.316406 L 68.039062 77.039062 L 98.417969 46.660156 C 106.554688 54.867188 94.386719 68.183594 76.320312 85.316406 Z M 76.320312 85.316406 "/>
<path style=" stroke:none;fill-rule:nonzero;fill:rgb(100%,42.352941%,21.568627%);fill-opacity:1;" d="M 76.320312 86.039062 C 76.101562 86.039062 75.960938 85.964844 75.816406 85.820312 L 67.535156 77.542969 C 67.394531 77.398438 67.394531 77.253906 67.394531 77.039062 C 67.394531 76.824219 67.464844 76.679688 67.609375 76.535156 L 97.988281 46.15625 C 98.273438 45.867188 98.707031 45.867188 98.996094 46.15625 C 100.867188 47.882812 101.875 50.332031 101.800781 52.851562 C 101.660156 60.84375 92.589844 70.992188 76.894531 85.820312 C 76.679688 85.964844 76.464844 86.039062 76.320312 86.039062 Z M 69.046875 77.039062 C 73.65625 81.71875 75.597656 83.589844 76.320312 84.308594 C 88.414062 72.792969 100.148438 60.984375 100.21875 52.851562 C 100.289062 50.980469 99.570312 49.109375 98.347656 47.667969 Z M 69.046875 77.039062 "/>
<path style=" stroke:none;fill-rule:nonzero;fill:rgb(100%,100%,100%);fill-opacity:1;" d="M 59.1875 68.257812 L 65.304688 74.375 C 65.449219 74.519531 65.449219 74.664062 65.304688 74.808594 C 65.234375 74.878906 65.234375 74.878906 65.160156 74.878906 L 52.492188 77.613281 C 51.84375 77.6875 51.269531 77.253906 51.125 76.605469 C 51.050781 76.246094 51.195312 75.886719 51.410156 75.671875 L 58.753906 68.328125 C 58.898438 68.183594 59.113281 68.113281 59.1875 68.257812 Z M 59.1875 68.257812 "/>
<path style=" stroke:none;fill-rule:nonzero;fill:rgb(100%,42.352941%,21.568627%);fill-opacity:1;" d="M 52.277344 78.335938 C 51.195312 78.335938 50.402344 77.472656 50.402344 76.390625 C 50.402344 75.886719 50.621094 75.382812 50.980469 75.023438 L 58.324219 67.679688 C 58.753906 67.320312 59.332031 67.320312 59.761719 67.679688 L 65.882812 73.800781 C 66.3125 74.160156 66.3125 74.808594 65.882812 75.238281 C 65.738281 75.382812 65.59375 75.457031 65.378906 75.527344 L 52.707031 78.261719 C 52.5625 78.261719 52.417969 78.335938 52.277344 78.335938 Z M 58.96875 69.046875 L 51.914062 76.101562 C 51.773438 76.246094 51.699219 76.464844 51.84375 76.679688 C 51.914062 76.894531 52.132812 76.96875 52.347656 76.894531 L 64.226562 74.304688 Z M 58.96875 69.046875 "/>
<path style=" stroke:none;fill-rule:nonzero;fill:rgb(100%,100%,100%);fill-opacity:1;" d="M 114.039062 29.382812 C 109.433594 24.921875 102.019531 25.066406 97.554688 29.742188 C 93.09375 34.421875 93.234375 41.765625 97.914062 46.230469 C 101.730469 49.898438 107.488281 50.546875 112.023438 47.8125 L 103.816406 39.605469 Z M 114.039062 29.382812 "/>
<path style=" stroke:none;fill-rule:nonzero;fill:rgb(100%,42.352941%,21.568627%);fill-opacity:1;" d="M 105.976562 50.1875 C 99.140625 50.1875 93.597656 44.644531 93.597656 37.804688 C 93.597656 30.96875 99.140625 25.425781 105.976562 25.425781 C 109.144531 25.425781 112.242188 26.648438 114.542969 28.878906 C 114.6875 29.023438 114.761719 29.167969 114.761719 29.382812 C 114.761719 29.601562 114.6875 29.742188 114.542969 29.886719 L 104.824219 39.605469 L 112.457031 47.238281 C 112.746094 47.523438 112.746094 47.957031 112.457031 48.246094 C 112.382812 48.316406 112.382812 48.316406 112.3125 48.386719 C 110.441406 49.539062 108.210938 50.1875 105.976562 50.1875 Z M 105.976562 26.9375 C 99.929688 26.9375 95.035156 31.832031 95.109375 37.878906 C 95.109375 43.925781 100.003906 48.820312 106.050781 48.75 C 107.707031 48.75 109.359375 48.386719 110.871094 47.597656 L 103.3125 40.109375 C 103.171875 39.964844 103.097656 39.820312 103.097656 39.605469 C 103.097656 39.390625 103.171875 39.246094 103.3125 39.101562 L 112.960938 29.457031 C 111.015625 27.800781 108.570312 26.9375 105.976562 26.9375 Z M 105.976562 26.9375 "/>
<path style=" stroke:none;fill-rule:nonzero;fill:rgb(100%,100%,100%);fill-opacity:1;" d="M 114.257812 29.601562 L 114.113281 29.457031 L 103.816406 39.605469 L 111.953125 47.742188 C 112.746094 47.238281 113.535156 46.660156 114.183594 46.011719 C 118.792969 41.476562 118.792969 34.136719 114.257812 29.601562 Z M 114.257812 29.601562 "/>
<path style=" stroke:none;fill-rule:nonzero;fill:rgb(100%,42.352941%,21.568627%);fill-opacity:1;" d="M 112.023438 48.53125 C 111.808594 48.53125 111.664062 48.460938 111.519531 48.316406 L 103.3125 40.109375 C 103.171875 39.964844 103.097656 39.820312 103.097656 39.605469 C 103.097656 39.390625 103.171875 39.246094 103.3125 39.101562 L 113.535156 28.878906 C 113.824219 28.59375 114.257812 28.59375 114.542969 28.878906 L 114.761719 29.023438 C 119.582031 33.847656 119.582031 41.621094 114.832031 46.515625 C 114.113281 47.238281 113.320312 47.882812 112.457031 48.386719 C 112.242188 48.460938 112.097656 48.53125 112.023438 48.53125 Z M 104.824219 39.605469 L 112.097656 46.875 C 112.671875 46.515625 113.25 46.011719 113.679688 45.582031 C 117.785156 41.476562 118 34.78125 114.039062 30.464844 Z M 104.824219 39.605469 "/>
<path style=" stroke:none;fill-rule:nonzero;fill:rgb(100%,100%,100%);fill-opacity:1;" d="M 99.210938 47.523438 C 97.484375 45.796875 94.675781 45.796875 92.949219 47.523438 L 65.808594 74.664062 L 70.34375 79.199219 L 99.066406 54.003906 C 100.9375 52.417969 101.082031 49.613281 99.5 47.742188 C 99.355469 47.667969 99.28125 47.597656 99.210938 47.523438 Z M 99.210938 47.523438 "/>
<path style=" stroke:none;fill-rule:nonzero;fill:rgb(100%,42.352941%,21.568627%);fill-opacity:1;" d="M 70.273438 79.917969 C 70.054688 79.917969 69.914062 79.847656 69.769531 79.703125 L 65.234375 75.167969 C 64.945312 74.878906 64.945312 74.449219 65.234375 74.160156 L 92.371094 47.019531 C 94.386719 45.003906 97.628906 45.003906 99.644531 47.019531 C 101.660156 49.035156 101.660156 52.277344 99.644531 54.292969 C 99.570312 54.363281 99.5 54.433594 99.425781 54.507812 L 70.703125 79.703125 C 70.632812 79.847656 70.488281 79.917969 70.273438 79.917969 Z M 66.816406 74.664062 L 70.34375 78.191406 L 98.5625 53.425781 C 100.148438 52.132812 100.289062 49.757812 98.996094 48.171875 C 97.699219 46.589844 95.324219 46.445312 93.738281 47.742188 C 93.667969 47.8125 93.597656 47.882812 93.453125 47.957031 Z M 66.816406 74.664062 "/>
<path style=" stroke:none;fill-rule:nonzero;fill:rgb(100%,100%,100%);fill-opacity:1;" d="M 45.003906 105.546875 C 44.71875 105.691406 44.574219 105.976562 44.644531 106.265625 L 45.867188 111.449219 C 46.15625 112.167969 45.726562 113.03125 44.933594 113.25 C 44.355469 113.464844 43.710938 113.25 43.347656 112.816406 L 35.429688 104.96875 L 61.273438 79.125 L 70.199219 79.269531 L 76.246094 85.316406 C 74.808594 86.542969 66.097656 94.964844 45.003906 105.546875 Z M 45.003906 105.546875 "/>
<path style=" stroke:none;fill-rule:nonzero;fill:rgb(100%,42.352941%,21.568627%);fill-opacity:1;" d="M 44.429688 113.96875 C 43.851562 113.96875 43.277344 113.753906 42.917969 113.320312 L 35.070312 105.472656 C 34.925781 105.328125 34.855469 105.1875 34.855469 104.96875 C 34.855469 104.753906 34.925781 104.609375 35.070312 104.464844 L 60.914062 78.621094 C 61.058594 78.480469 61.273438 78.40625 61.417969 78.40625 L 70.34375 78.550781 C 70.558594 78.550781 70.703125 78.621094 70.847656 78.765625 L 76.894531 84.8125 C 77.039062 84.957031 77.109375 85.171875 77.109375 85.390625 C 77.109375 85.605469 77.039062 85.75 76.824219 85.894531 L 76.320312 86.324219 C 68.6875 93.019531 58.324219 99.714844 45.4375 106.121094 L 46.660156 111.234375 C 46.875 112.167969 46.445312 113.175781 45.582031 113.679688 C 45.148438 113.894531 44.789062 113.96875 44.429688 113.96875 Z M 36.511719 104.96875 L 43.925781 112.3125 C 44.140625 112.671875 44.574219 112.816406 44.933594 112.601562 C 45.292969 112.382812 45.4375 111.953125 45.222656 111.59375 L 43.996094 106.410156 C 43.851562 105.761719 44.140625 105.1875 44.71875 104.898438 C 57.457031 98.492188 67.753906 91.867188 75.3125 85.316406 L 69.984375 79.992188 L 61.707031 79.847656 Z M 36.511719 104.96875 "/>
<path style=" stroke:none;fill-rule:nonzero;fill:rgb(100%,100%,100%);fill-opacity:1;" d="M 29.3125 111.160156 L 35.503906 104.96875 L 44.71875 114.183594 L 30.03125 113.175781 C 29.382812 113.105469 28.953125 112.527344 29.023438 111.878906 C 29.023438 111.59375 29.097656 111.304688 29.3125 111.160156 Z M 29.3125 111.160156 "/>
<path style=" stroke:none;fill-rule:nonzero;fill:rgb(100%,42.352941%,21.568627%);fill-opacity:1;" d="M 44.71875 114.832031 L 29.960938 113.824219 C 28.878906 113.753906 28.160156 112.816406 28.230469 111.738281 C 28.304688 111.304688 28.449219 110.871094 28.808594 110.585938 L 35 104.394531 C 35.285156 104.105469 35.71875 104.105469 36.007812 104.394531 L 45.222656 113.609375 C 45.4375 113.824219 45.507812 114.113281 45.363281 114.398438 C 45.222656 114.6875 45.003906 114.832031 44.71875 114.832031 Z M 35.503906 105.976562 L 29.816406 111.664062 C 29.601562 111.808594 29.601562 112.167969 29.816406 112.3125 C 29.886719 112.382812 29.960938 112.457031 30.105469 112.457031 L 42.84375 113.320312 Z M 35.503906 105.976562 "/>
<path style=" stroke:none;fill-rule:nonzero;fill:rgb(100%,42.352941%,21.568627%);fill-opacity:1;" d="M 58.753906 82.4375 C 58.324219 82.4375 58.035156 82.078125 58.035156 81.71875 C 58.035156 81.503906 58.105469 81.359375 58.25 81.214844 L 65.234375 74.230469 C 65.519531 73.945312 65.953125 73.945312 66.242188 74.230469 L 70.777344 78.765625 C 70.992188 78.984375 71.0625 79.199219 70.992188 79.488281 C 70.921875 79.703125 70.703125 79.917969 70.417969 79.992188 L 58.898438 82.4375 C 58.828125 82.4375 58.753906 82.4375 58.753906 82.4375 Z M 65.738281 75.742188 L 60.984375 80.496094 L 68.761719 78.839844 Z M 65.738281 75.742188 "/>
<path style=" stroke:none;fill-rule:nonzero;fill:rgb(100%,100%,100%);fill-opacity:1;" d="M 70.199219 79.269531 L 62.28125 81 C 61.707031 81.140625 61.128906 80.78125 60.984375 80.207031 C 60.914062 79.847656 60.984375 79.488281 61.273438 79.199219 L 65.664062 74.808594 Z M 70.199219 79.269531 "/>
<path style=" stroke:none;fill-rule:nonzero;fill:rgb(100%,42.352941%,21.568627%);fill-opacity:1;" d="M 62.136719 81.71875 C 61.128906 81.71875 60.339844 80.925781 60.339844 79.917969 C 60.339844 79.414062 60.554688 78.984375 60.84375 78.621094 L 65.234375 74.230469 C 65.519531 73.945312 65.953125 73.945312 66.242188 74.230469 L 70.777344 78.765625 C 70.992188 78.984375 71.0625 79.199219 70.992188 79.488281 C 70.921875 79.703125 70.703125 79.917969 70.417969 79.992188 L 62.496094 81.71875 C 62.355469 81.71875 62.210938 81.71875 62.136719 81.71875 Z M 65.738281 75.742188 L 61.851562 79.628906 C 61.707031 79.773438 61.707031 79.917969 61.777344 80.0625 C 61.851562 80.207031 61.992188 80.277344 62.210938 80.277344 L 68.832031 78.839844 Z M 65.738281 75.742188 "/>
<path style=" stroke:none;fill-rule:nonzero;fill:rgb(100%,42.352941%,21.568627%);fill-opacity:1;" d="M 114.328125 36.511719 C 114.183594 36.078125 113.679688 35.863281 113.25 36.007812 C 112.816406 36.152344 112.601562 36.65625 112.746094 37.085938 C 112.746094 37.160156 112.816406 37.230469 112.816406 37.300781 C 113.25 38.167969 113.105469 39.246094 112.527344 40.039062 C 112.242188 40.398438 112.3125 40.902344 112.601562 41.191406 C 112.960938 41.476562 113.464844 41.40625 113.753906 41.046875 C 114.832031 39.679688 115.046875 37.949219 114.328125 36.511719 Z M 114.328125 36.511719 "/>
</g>
</svg>
